# xmcd CD database file
#
# Track frame offsets:
#	182
#	28265
#	51252
#	84625
#	105500
#	137697
#	159285
#	183505
#	210610
#	230347
#	259280
#
# Disc length: 3641 seconds
#
# Revision: 0
# Processed by: cddbd v1.5.2PL0 Copyright (c) Steve Scherf et al.
# Submitted via: CDex 1.70beta2
#
DISCID=930e370b
DTITLE=Anuraga - Freedom
DYEAR=1997
DGENRE=New Age
TTITLE0=Vishnu Debata
TTITLE1=Bhagaban
TTITLE2=Ami Jachi
TTITLE3=Prelude
TTITLE4=Tomara Rakhibo
TTITLE5=Peace
TTITLE6=I Can Lift
TTITLE7=Katha Gan
TTITLE8=Eternal India
TTITLE9=Alpa Katha
TTITLE10=Epilog
EXTD=YEAR: 1997
EXTT0=
EXTT1=
EXTT2=
EXTT3=
EXTT4=
EXTT5=
EXTT6=
EXTT7=
EXTT8=
EXTT9=
EXTT10=
PLAYORDER=
